{"scene":0,"asset":{"generator":"ImageToStl.com","version":"2.0"},"scenes":[{"name":"Scene","nodes":[0]}],"nodes":[{"name":"Node0","children":[1]},{"name":"Node1","mesh":0,"children":[2,3,4,5]},{"name":"Node2","mesh":1},{"name":"Node3","mesh":2},{"name":"Node4","mesh":3},{"name":"Node5","mesh":4}],"materials":[{"name":"#E5E5E5FF","pbrMetallicRoughness":{"baseColorFactor":[0.8980392,0.8980392,0.8980392,1.0],"metallicFactor":0.05,"roughnessFactor":0.5},"doubleSided":true},{"name":"#F3CB7CFF","pbrMetallicRoughness":{"baseColorFactor":[0.9529412,0.79607844,0.4862745,1.0],"metallicFactor":0.05,"roughnessFactor":0.5},"doubleSided":true},{"name":"#1A1A1AFF","pbrMetallicRoughness":{"baseColorFactor":[0.101960786,0.101960786,0.101960786,1.0],"metallicFactor":0.05,"roughnessFactor":0.5},"doubleSided":true},{"name":"#8C2E2EFF","pbrMetallicRoughness":{"baseColorFactor":[0.54901963,0.18039216,0.18039216,1.0],"metallicFactor":0.05,"roughnessFactor":0.5},"doubleSided":true},{"name":"#6179C9FF","pbrMetallicRoughness":{"baseColorFactor":[0.38039216,0.4745098,0.7882353,1.0],"metallicFactor":0.05,"roughnessFactor":0.5},"doubleSided":true}],"meshes":[{"name":"Mesh0","primitives":[{"indices":1,"material":0,"attributes":{"POSITION":0}}]},{"name":"Mesh0","primitives":[{"indices":3,"material":1,"attributes":{"POSITION":2}}]},{"name":"Mesh0","primitives":[{"indices":5,"material":2,"attributes":{"POSITION":4}}]},{"name":"Mesh0","primitives":[{"indices":7,"material":3,"attributes":{"POSITION":6}}]},{"name":"Mesh0","primitives":[{"indices":9,"material":4,"attributes":{"POSITION":8}}]}],"accessors":[{"bufferView":0,"componentType":5126,"count":16558,"type":"VEC3","min":[-6.9995337,0.0,-1.5],"max":[6.9995337,4.0,1.5]},{"bufferView":1,"componentType":5123,"count":97935,"type":"SCALAR"},{"bufferView":2,"componentType":5126,"count":29301,"type":"VEC3","min":[-3.2897668,-1.75,-0.75],"max":[3.2897668,4.004489,0.75]},{"bufferView":3,"componentType":5123,"count":175770,"type":"SCALAR"},{"bufferView":4,"componentType":5126,"count":17284,"type":"VEC3","min":[-7.5,0.0,-2.0],"max":[7.5,4.0,2.0]},{"bufferView":5,"componentType":5123,"count":103752,"type":"SCALAR"},{"bufferView":6,"componentType":5126,"count":10,"type":"VEC3","min":[-6.0493593,3.999,-0.72220623],"max":[-4.895513,3.999,0.77779377]},{"bufferView":7,"componentType":5123,"count":24,"type":"SCALAR"},{"bufferView":8,"componentType":5126,"count":457,"type":"VEC3","min":[4.919496,3.999,-0.78990597],"max":[6.092573,3.999,0.74855554]},{"bufferView":9,"componentType":5123,"count":1365,"type":"SCALAR"}],"bufferViews":[{"target":34962,"buffer":0,"byteLength":198696,"byteOffset":0},{"target":34963,"buffer":0,"byteLength":195870,"byteOffset":198696},{"target":34962,"buffer":0,"byteLength":351612,"byteOffset":394568},{"target":34963,"buffer":0,"byteLength":351540,"byteOffset":746180},{"target":34962,"buffer":0,"byteLength":207408,"byteOffset":1097720},{"target":34963,"buffer":0,"byteLength":207504,"byteOffset":1305128},{"target":34962,"buffer":0,"byteLength":120,"byteOffset":1512632},{"target":34963,"buffer":0,"byteLength":48,"byteOffset":1512752},{"target":34962,"buffer":0,"byteLength":5484,"byteOffset":1512800},{"target":34963,"buffer":0,"byteLength":2730,"byteOffset":1518284}],"buffers":[{"byteLength":1521016,"uri":"data:application/octet-stream;base64,"}]}